<svg width="130" height="125" viewBox="0 0 130 125" fill="none" xmlns="http://www.w3.org/2000/svg">
<path d="M107.112 73.7747L85.7983 84.1679C85.5724 84.2798 85.3195 84.3251 85.0689 84.2986C84.8183 84.2721 84.5804 84.1749 84.383 84.0183L68.9301 72.1095C68.7294 71.9566 68.4906 71.8617 68.2398 71.8352C67.9889 71.8088 67.7355 71.8517 67.5074 71.9594C67.2792 72.0671 67.085 72.2354 66.9459 72.446C66.8067 72.6565 66.728 72.9013 66.7183 73.1536L65.1029 122.654C65.0978 122.876 65.1473 123.097 65.247 123.296C65.3467 123.495 65.4936 123.667 65.6749 123.796C65.8562 123.925 66.0664 124.008 66.2871 124.037C66.5077 124.066 66.7322 124.041 66.9408 123.963L107.587 108.897C107.847 108.8 108.071 108.627 108.23 108.401C108.389 108.174 108.476 107.905 108.479 107.628L109.076 74.9834C109.076 74.752 109.017 74.5243 108.904 74.3222C108.792 74.1201 108.629 73.9503 108.432 73.829C108.235 73.7078 108.011 73.6391 107.779 73.6296C107.548 73.6201 107.319 73.6701 107.112 73.7747Z" fill="#CA862B"/>
<path d="M128.826 57.615L106.266 46.0543C105.855 45.9247 105.41 45.9602 105.025 46.1534L68.5269 66.2925C68.2778 66.4208 68.0658 66.6112 67.9115 66.8452C67.7572 67.0792 67.6656 67.3491 67.6457 67.6288C67.6258 67.9085 67.6782 68.1886 67.7978 68.4421C67.9175 68.6957 68.1003 68.9142 68.3287 69.0765L84.378 81.4081C84.6216 81.593 84.9148 81.7012 85.2202 81.7189C85.5255 81.7366 85.8291 81.6629 86.0925 81.5072L129.074 60.2493C129.318 60.1119 129.517 59.9067 129.647 59.6586C129.776 59.4105 129.831 59.1301 129.805 58.8513C129.779 58.5726 129.672 58.3074 129.498 58.088C129.324 57.8686 129.091 57.7043 128.826 57.615Z" fill="#CA862B"/>
<path d="M68.7282 20.3949L104.504 42.97C104.762 43.1497 105.068 43.248 105.382 43.2523C105.696 43.2567 106.005 43.1668 106.267 42.9943L122.988 32.4028C123.212 32.259 123.397 32.0616 123.526 31.8284C123.655 31.5952 123.724 31.3334 123.726 31.0669C123.729 30.8004 123.665 30.5375 123.54 30.3019C123.415 30.0664 123.234 29.8657 123.012 29.7179L82.1693 3.88733C81.8421 3.66097 81.4429 3.56365 81.0484 3.61408C80.6539 3.6645 80.292 3.85912 80.0322 4.16049L68.4048 18.0057C68.2567 18.1786 68.1469 18.3809 68.0826 18.5993C68.0182 18.8177 68.0007 19.0472 68.0312 19.2728C68.0617 19.4985 68.1397 19.7151 68.2598 19.9085C68.3799 20.1018 68.5395 20.2676 68.7282 20.3949Z" fill="#CA862B"/>
<path d="M3.44118 26.0381L23.3662 39.5091C23.6335 39.6908 23.9434 39.8002 24.2655 39.8264C24.5876 39.8526 24.911 39.7949 25.2041 39.6588L65.4974 20.9416C65.7438 20.8265 65.9625 20.6594 66.1383 20.4518C66.3142 20.2442 66.4431 20.001 66.5163 19.7389C66.5894 19.4768 66.6051 19.2019 66.5622 18.9332C66.5193 18.6644 66.4188 18.4082 66.2677 18.1819L54.5411 0.828672C54.2909 0.455402 53.9148 0.184752 53.4815 0.0662248C53.0482 -0.0523022 52.5868 -0.010783 52.1816 0.183188L3.68237 22.7564C3.38124 22.9005 3.12351 23.1217 2.93529 23.3976C2.74708 23.6734 2.63505 23.9941 2.61057 24.3273C2.58609 24.6604 2.65002 24.9941 2.79588 25.2945C2.94174 25.5949 3.16436 25.8515 3.44118 26.0381Z" fill="#CA862B"/>
<path d="M47.7324 78.9201L64.1855 70.0685C64.363 69.9523 64.5087 69.7937 64.6096 69.607C64.7104 69.4203 64.7633 69.2115 64.7633 68.9992C64.7633 68.787 64.7104 68.5782 64.6096 68.3915C64.5087 68.2048 64.363 68.0462 64.1855 67.93L25.6703 44.0621C25.4272 43.9055 25.1352 43.8436 24.8496 43.8881L1.12345 46.6945C0.864437 46.7231 0.620633 46.8313 0.425514 47.0041C0.230394 47.177 0.0935269 47.406 0.033705 47.6598C-0.0261168 47.9137 -0.00596 48.1798 0.0914079 48.4216C0.188776 48.6635 0.35858 48.8693 0.577505 49.0108L46.3657 78.9201C46.5728 79.0421 46.8087 79.1065 47.0491 79.1065C47.2894 79.1065 47.5254 79.0421 47.7324 78.9201Z" fill="#CA862B"/>
<path d="M62.9605 72.6966L48.0779 81.6473C47.8808 81.7676 47.6544 81.8313 47.4235 81.8313C47.1927 81.8313 46.9662 81.7676 46.7692 81.6473L24.7314 67.2521C24.5546 67.1331 24.3489 67.0643 24.1362 67.053C23.9235 67.0416 23.7117 67.088 23.5232 67.1874C23.3347 67.2867 23.1767 67.4353 23.0658 67.6174C22.955 67.7994 22.8954 68.0081 22.8935 68.2212L22.0989 99.2793C22.0948 99.4915 22.1452 99.7012 22.2454 99.8883C22.3456 100.075 22.4921 100.234 22.671 100.348L61.3732 123.922C61.5526 124.029 61.757 124.088 61.9661 124.092C62.1752 124.096 62.3817 124.045 62.565 123.944C62.7484 123.844 62.9023 123.697 63.0113 123.518C63.1204 123.34 63.1809 123.136 63.1867 122.926L64.8507 73.7742C64.854 73.5518 64.7976 73.3326 64.6874 73.1395C64.5771 72.9463 64.4171 72.7864 64.224 72.6763C64.0308 72.5661 63.8117 72.5099 63.5895 72.5135C63.3672 72.517 63.15 72.5803 62.9605 72.6966Z" fill="#CA862B"/>
<path d="M26.7114 43.145L64.2525 66.0176C64.5079 66.1896 64.8068 66.2857 65.1146 66.2946C65.4223 66.3036 65.7263 66.225 65.9913 66.0681L102.263 46.03C102.534 45.8879 102.762 45.6764 102.924 45.4172C103.087 45.158 103.178 44.8604 103.188 44.5546C103.198 44.2489 103.127 43.9459 102.982 43.6766C102.837 43.4072 102.623 43.1812 102.362 43.0215L68.5209 21.8646C68.2789 21.7093 68.0011 21.6186 67.714 21.6012C67.427 21.5839 67.1402 21.6404 66.8812 21.7655L26.9358 40.086C26.6464 40.212 26.397 40.4148 26.2145 40.6724C26.0319 40.9301 25.9233 41.2327 25.9002 41.5477C25.8771 41.8626 25.9404 42.1779 26.0834 42.4594C26.2264 42.7409 26.4435 42.978 26.7114 43.145Z" fill="#CA862B"/>
</svg>
