<svg width="83" height="83" viewBox="0 0 83 83" fill="none" xmlns="http://www.w3.org/2000/svg">
<path d="M41.75 82.75C64.5317 82.75 83 64.2817 83 41.5C83 18.7183 64.5317 0.25 41.75 0.25C18.9683 0.25 0.5 18.7183 0.5 41.5C0.5 64.2817 18.9683 82.75 41.75 82.75Z" fill="#04AA32"/>
<path d="M41.7494 80.5935C63.3399 80.5935 80.8425 63.0909 80.8425 41.5004C80.8425 19.9098 63.3399 2.40723 41.7494 2.40723C20.1588 2.40723 2.65625 19.9098 2.65625 41.5004C2.65625 63.0909 20.1588 80.5935 41.7494 80.5935Z" stroke="#04AA32" stroke-width="4"/>
<path d="M62.383 53.4299C62.4306 53.7498 62.3997 54.0764 62.293 54.3817C62.1863 54.687 62.007 54.9617 61.7705 55.1823L55.9588 60.9455C55.6683 61.2577 55.3195 61.5101 54.9321 61.6885C54.5398 61.8832 54.1196 62.016 53.6866 62.0821C53.6571 62.0821 53.5697 62.0893 53.4245 62.1037C53.2793 62.1181 53.0898 62.1253 52.8562 62.1253C51.955 62.091 51.0572 61.9962 50.1687 61.8416C48.6044 61.553 47.0792 61.0825 45.6242 60.4397C43.4945 59.5132 41.4539 58.3942 39.5278 57.0965C36.9031 55.3159 34.472 53.2654 32.2743 50.9786C30.4331 49.1949 28.7381 47.2662 27.2057 45.2112C26.004 43.5956 24.9226 41.8939 23.9704 40.1199C23.2412 38.7612 22.6279 37.3434 22.137 35.8816C21.7784 34.8116 21.5008 33.716 21.3066 32.6043C21.1767 31.8922 21.1186 31.1689 21.133 30.4453C21.1625 29.9212 21.1772 29.63 21.1772 29.5717C21.2434 29.1399 21.3758 28.7209 21.5698 28.3294C21.7474 27.9406 21.9995 27.5903 22.3117 27.2984L28.1245 21.4867C28.304 21.2944 28.521 21.141 28.7621 21.0358C29.0033 20.9306 29.2634 20.876 29.5265 20.8753C29.8881 20.8687 30.2417 20.9825 30.5315 21.1988C30.8263 21.421 31.0781 21.6951 31.2746 22.0076L35.9507 30.8777C36.2116 31.3424 36.2886 31.8882 36.1664 32.4069C36.0633 32.9377 35.8047 33.4257 35.4233 33.8089L33.2826 35.9496C33.2111 36.0315 33.1587 36.1284 33.1295 36.2332C33.0911 36.337 33.0689 36.4462 33.0637 36.5567C33.2247 37.2898 33.4894 37.9961 33.8499 38.6543C34.3212 39.5474 34.8621 40.402 35.4675 41.2102C36.4048 42.4511 37.4425 43.6129 38.5702 44.6838C39.6491 45.8192 40.8183 46.8651 42.0665 47.8113C42.8761 48.4207 43.7305 48.9683 44.6223 49.4494C45.1183 49.7253 45.6469 49.938 46.1958 50.0824L46.7415 50.1903C46.8386 50.1817 46.9341 50.1596 47.0251 50.1245C47.1299 50.0952 47.2268 50.0429 47.3087 49.9714L49.7999 47.437C50.3005 46.9804 50.9557 46.7307 51.6332 46.7382C52.0429 46.718 52.4504 46.8085 52.813 47.0003H52.8562L61.2895 51.9815C61.5644 52.1312 61.8041 52.3378 61.9927 52.5876C62.1813 52.8374 62.3144 53.1245 62.383 53.4299Z" fill="white"/>
</svg>
