<svg width="60" height="60" viewBox="0 0 60 60" fill="none" xmlns="http://www.w3.org/2000/svg">
<path d="M30 60C46.5685 60 60 46.5685 60 30C60 13.4315 46.5685 0 30 0C13.4315 0 0 13.4315 0 30C0 46.5685 13.4315 60 30 60Z" fill="white"/>
<path d="M30 59.5C46.2924 59.5 59.5 46.2924 59.5 30C59.5 13.7076 46.2924 0.5 30 0.5C13.7076 0.5 0.5 13.7076 0.5 30C0.5 46.2924 13.7076 59.5 30 59.5Z" stroke="#D80027"/>
<path d="M32.6533 29.9989L44.4503 18.1989C44.6393 18.0285 44.7917 17.8213 44.8981 17.5901C45.0046 17.3589 45.0628 17.1084 45.0694 16.854C45.0759 16.5995 45.0306 16.3464 44.9362 16.11C44.8418 15.8736 44.7003 15.6589 44.5203 15.4789C44.3403 15.2989 44.1255 15.1575 43.8891 15.0632C43.6526 14.9689 43.3995 14.9237 43.145 14.9303C42.8906 14.937 42.6401 14.9953 42.4089 15.1019C42.1778 15.2084 41.9707 15.3608 41.8003 15.5499L30.0003 27.3469L18.2003 15.5499C17.8433 15.228 17.3763 15.0554 16.8957 15.0678C16.4152 15.0802 15.9577 15.2766 15.6177 15.6164C15.2778 15.9563 15.0812 16.4137 15.0687 16.8942C15.0561 17.3748 15.2285 17.8418 15.5503 18.1989L27.3473 29.9989L15.5503 41.7989C15.3623 41.9697 15.2109 42.1768 15.1054 42.4078C14.9998 42.6387 14.9422 42.8887 14.9361 43.1426C14.93 43.3965 14.9755 43.6489 15.0698 43.8847C15.1642 44.1205 15.3054 44.3346 15.485 44.5142C15.6646 44.6938 15.8787 44.835 16.1145 44.9294C16.3503 45.0237 16.6028 45.0692 16.8566 45.0631C17.1105 45.057 17.3605 44.9995 17.5915 44.8939C17.8224 44.7883 18.0296 44.6369 18.2003 44.4489L30.0003 32.6519L41.8003 44.4519C42.156 44.7837 42.6267 44.9643 43.113 44.9556C43.5993 44.947 44.0633 44.7498 44.407 44.4057C44.7507 44.0616 44.9474 43.5974 44.9555 43.1111C44.9635 42.6247 44.7824 42.1543 44.4503 41.7989L32.6533 29.9989Z" fill="#D80027" stroke="#D80027"/>
</svg>
