<svg width="55" height="55" viewBox="0 0 55 55" fill="none" xmlns="http://www.w3.org/2000/svg">
<path d="M52.3375 11.0679L36.0815 27.3249L52.3375 43.5819C52.9124 44.1565 53.3685 44.8388 53.6798 45.5897C53.991 46.3407 54.1513 47.1456 54.1515 47.9585C54.1517 48.7713 53.9918 49.5763 53.6809 50.3274C53.37 51.0785 52.9142 51.7609 52.3395 52.3359C51.7648 52.9108 51.0826 53.3669 50.3316 53.6782C49.5807 53.9894 48.7758 54.1497 47.9629 54.1499C47.15 54.1501 46.3451 53.9901 45.594 53.6792C44.8429 53.3683 44.1604 52.9125 43.5855 52.3379L27.3255 36.0799L11.0675 52.3379C9.9064 53.4986 8.33174 54.1505 6.68995 54.1502C5.04816 54.15 3.47373 53.4975 2.31301 52.3364C1.15229 51.1753 0.500365 49.6006 0.500646 47.9588C0.500928 46.317 1.1534 44.7426 2.31451 43.5819L18.5695 27.3249L2.31351 11.0679C1.15253 9.90715 0.500188 8.33277 0.5 6.69107C0.499813 5.04938 1.15179 3.47485 2.31251 2.31387C3.47323 1.15288 5.04761 0.500541 6.68931 0.500354C8.331 0.500166 9.90553 1.15215 11.0665 2.31287L27.3255 18.5699L43.5825 2.31287C44.7435 1.15201 46.3181 0.499906 47.9599 0.5C49.6017 0.500094 51.1762 1.15238 52.337 2.31337C53.4979 3.47435 54.15 5.04893 54.1499 6.69072C54.1498 8.33251 53.4975 9.90701 52.3365 11.0679H52.3375Z" fill="white"/>
</svg>
