<svg width="610" height="86" viewBox="0 0 610 86" fill="none" xmlns="http://www.w3.org/2000/svg">
<path d="M6 73.4179C6 73.4179 268.2 -93.0121 601.609 75.2879L593.235 82.0219C593.235 82.0219 310.099 -74.6661 14.829 77.9049L6 73.4179Z" fill="#1661FD"/>
<path d="M593.996 67.8887C599.519 67.8887 603.996 63.4115 603.996 57.8887C603.996 52.3658 599.519 47.8887 593.996 47.8887C588.473 47.8887 583.996 52.3658 583.996 57.8887C583.996 63.4115 588.473 67.8887 593.996 67.8887Z" fill="white"/>
<path d="M593.996 67.3887C599.243 67.3887 603.496 63.1354 603.496 57.8887C603.496 52.642 599.243 48.3887 593.996 48.3887C588.749 48.3887 584.496 52.642 584.496 57.8887C584.496 63.1354 588.749 67.3887 593.996 67.3887Z" stroke="#707070"/>
<path d="M593.996 44.2236C590.019 44.2281 586.207 45.8099 583.394 48.622C580.582 51.4341 579.001 55.2468 578.996 59.2236C578.996 69.4886 592.42 84.5566 592.996 85.1936C593.123 85.3347 593.278 85.4474 593.451 85.5247C593.624 85.6019 593.812 85.6418 594.001 85.6418C594.191 85.6418 594.378 85.6019 594.551 85.5247C594.724 85.4474 594.879 85.3347 595.006 85.1936C595.578 84.5576 609.006 69.4886 609.006 59.2236C609.002 55.245 607.418 51.4308 604.604 48.6185C601.79 45.8061 597.975 44.2255 593.996 44.2236V44.2236ZM593.996 66.7706C592.503 66.7706 591.044 66.328 589.803 65.4987C588.562 64.6695 587.595 63.4908 587.024 62.1117C586.452 60.7327 586.303 59.2153 586.594 57.7513C586.885 56.2873 587.604 54.9426 588.66 53.8871C589.715 52.8316 591.06 52.1128 592.524 51.8216C593.988 51.5304 595.505 51.6799 596.884 52.2511C598.263 52.8223 599.442 53.7896 600.271 55.0307C601.1 56.2718 601.543 57.731 601.543 59.2236C601.541 61.2246 600.745 63.143 599.33 64.5578C597.915 65.9727 595.997 66.7685 593.996 66.7706Z" fill="#FA0000"/>
<path d="M15 67.8887C20.5228 67.8887 25 63.4115 25 57.8887C25 52.3658 20.5228 47.8887 15 47.8887C9.47715 47.8887 5 52.3658 5 57.8887C5 63.4115 9.47715 67.8887 15 67.8887Z" fill="white"/>
<path d="M15 67.3887C20.2467 67.3887 24.5 63.1354 24.5 57.8887C24.5 52.642 20.2467 48.3887 15 48.3887C9.75329 48.3887 5.5 52.642 5.5 57.8887C5.5 63.1354 9.75329 67.3887 15 67.3887Z" stroke="#707070"/>
<path d="M15 44.2236C11.0231 44.2281 7.21044 45.8099 4.39837 48.622C1.5863 51.4341 0.00449947 55.2468 0 59.2236C0 69.4886 13.424 84.5566 14 85.1936C14.1267 85.3347 14.2817 85.4474 14.4548 85.5247C14.628 85.6019 14.8154 85.6418 15.005 85.6418C15.1946 85.6418 15.382 85.6019 15.5552 85.5247C15.7283 85.4474 15.8833 85.3347 16.01 85.1936C16.582 84.5576 30.01 69.4886 30.01 59.2236C30.0055 55.245 28.4223 51.4308 25.6081 48.6185C22.7939 45.8061 18.9786 44.2255 15 44.2236V44.2236ZM15 66.7706C13.5073 66.7706 12.0482 66.328 10.8071 65.4987C9.56602 64.6695 8.5987 63.4908 8.02748 62.1117C7.45627 60.7327 7.30681 59.2153 7.59801 57.7513C7.88922 56.2873 8.608 54.9426 9.66347 53.8871C10.7189 52.8316 12.0637 52.1128 13.5277 51.8216C14.9916 51.5304 16.5091 51.6799 17.8881 52.2511C19.2671 52.8223 20.4458 53.7896 21.2751 55.0307C22.1044 56.2718 22.547 57.731 22.547 59.2236C22.5449 61.2246 21.7491 63.143 20.3342 64.5578C18.9193 65.9727 17.0009 66.7685 15 66.7706Z" fill="#05A42B"/>
</svg>
