<svg width="71" height="55" viewBox="0 0 71 55" fill="none" xmlns="http://www.w3.org/2000/svg">
<path d="M69.2368 7.90667L63.0948 1.76467C62.278 0.954558 61.1742 0.5 60.0238 0.5C58.8734 0.5 57.7695 0.954558 56.9528 1.76467L27.3268 31.4357L14.0488 18.1137C13.6504 17.7043 13.1724 17.381 12.6442 17.1636C12.116 16.9462 11.5488 16.8394 10.9778 16.8497C10.4067 16.8394 9.83955 16.9463 9.31137 17.1637C8.78319 17.3811 8.30516 17.7044 7.90675 18.1137L1.76475 24.2557C0.954583 25.0726 0.5 26.1766 0.5 27.3272C0.5 28.4777 0.954583 29.5817 1.76475 30.3987L18.1138 46.7457L24.2558 52.8877C25.0725 53.6978 26.1763 54.1523 27.3268 54.1523C28.4772 54.1523 29.581 53.6978 30.3978 52.8877L36.5398 46.7457L69.2398 14.0457C70.0496 13.2287 70.504 12.125 70.504 10.9747C70.504 9.82434 70.0496 8.72059 69.2398 7.90367L69.2368 7.90667Z" fill="white"/>
</svg>
