<svg xmlns="http://www.w3.org/2000/svg" width="23.205" height="18.467" viewBox="0 0 23.205 18.467">
    <defs>
        <style>
            .cls-1{fill:#f0203c}
        </style>
    </defs>
    <g id="home" transform="translate(.001 -46.994)">
        <g id="Group_87" data-name="Group 87" transform="translate(-.001 46.994)">
            <path id="Path_69" d="M74.049 120.939l-8.337 6.7a.188.188 0 0 1-.007.042.189.189 0 0 0-.007.042v6.777a.858.858 0 0 0 .276.636.9.9 0 0 0 .652.269h5.567v-5.426h3.712v5.426h5.567a.9.9 0 0 0 .652-.269.858.858 0 0 0 .276-.636v-6.782a.194.194 0 0 0-.015-.084z" class="cls-1" data-name="Path 69" transform="translate(-62.447 -116.941)"/>
            <path id="Path_70" d="M23.044 55.825l-3.152-2.572v-5.764a.435.435 0 0 0-.13-.325.451.451 0 0 0-.331-.127h-2.763a.453.453 0 0 0-.331.127.436.436 0 0 0-.129.325v2.755L12.7 47.361a1.812 1.812 0 0 0-2.188 0L.159 55.825a.408.408 0 0 0-.158.3.452.452 0 0 0 .1.332l.892 1.046a.494.494 0 0 0 .3.155.542.542 0 0 0 .346-.1L11.6 49.41l9.96 8.153a.449.449 0 0 0 .3.1h.043a.494.494 0 0 0 .3-.155l.892-1.045a.452.452 0 0 0 .1-.332.409.409 0 0 0-.151-.306z" class="cls-1" data-name="Path 70" transform="translate(.001 -46.994)"/>
        </g>
    </g>
</svg>
