<svg xmlns="http://www.w3.org/2000/svg" width="19.03" height="23.15" viewBox="0 0 19.03 23.15">
    <defs>
        <style>
            .cls-1{fill:#ee0020}
        </style>
    </defs>
    <g id="offices-buildings" transform="translate(-44.39)">
        <path id="Path_71" d="M53.068 6.877h2.193v2.466h1.447V1.038A1.038 1.038 0 0 0 55.672 0H45.428a1.038 1.038 0 0 0-1.038 1.038v21.074a1.038 1.038 0 0 0 1.038 1.038h3.685V16.4h2.855v-5.645a1.432 1.432 0 0 1 1.1-1.321V6.878zm0-4.8h2.193V5.19h-2.193zm-5 17.51h-2.193v-3.115h2.193v3.114zm0-4.559h-2.193v-3.116h2.193v3.114zm0-5.035h-2.193V6.877h2.193v3.115zm0-4.8h-2.193V2.076h2.193v3.115zm3.658 9.836h-2.193v-3.117h2.193zm0-5.035h-2.193V6.877h2.193zm0-4.8h-2.193V2.076h2.193zm10.815 4.983h-8.676c-.486 0-.879.26-.879.582v11.809c0 .322.394.582.879.582h3.121v-3.782h2.506v3.782h3.048c.485 0 .879-.26.879-.582V10.755c.001-.321-.393-.581-.878-.581zM56.1 21.152h-1.857v-1.745H56.1zm0-2.555h-1.857v-1.746H56.1zm0-2.822h-1.857v-1.746H56.1zm0-2.691h-1.857v-1.747H56.1zm3.1 5.516h-1.858v-1.749H59.2zm0-2.822h-1.858v-1.749H59.2zm0-2.691h-1.858v-1.75H59.2zm2.995 8.108h-1.858v-1.749h1.857zm0-2.594h-1.858v-1.75h1.857zm0-2.822h-1.858v-1.75h1.857zm0-2.691h-1.858v-1.751h1.857z" class="cls-1" data-name="Path 71"/>
    </g>
</svg>
