<svg width="46" height="46" viewBox="0 0 46 46" fill="none" xmlns="http://www.w3.org/2000/svg">
<circle cx="23.4289" cy="23.4279" r="11.5714" fill="#588EFE"/>
<path fill-rule="evenodd" clip-rule="evenodd" d="M20.6434 0.713867H25.3577V4.26285C33.9166 5.23096 40.7392 11.9285 41.8981 20.4282H45.2863V25.1424H41.9516C40.9673 33.8447 34.0599 40.752 25.3577 41.7363V45.2853H20.6434V41.6829C12.1438 40.5239 5.44622 33.7013 4.47811 25.1424H0.714844V20.4282H4.53156C5.67108 12.0709 12.2861 5.45581 20.6434 4.3163V0.713867ZM23.2148 37.571C31.2624 37.571 37.7863 31.0472 37.7863 22.9996C37.7863 14.952 31.2624 8.42815 23.2148 8.42815C15.1673 8.42815 8.64342 14.952 8.64342 22.9996C8.64342 31.0472 15.1673 37.571 23.2148 37.571Z" fill="#797979"/>
</svg>
