<svg width="87" height="87" viewBox="0 0 87 87" fill="none" xmlns="http://www.w3.org/2000/svg">
<circle cx="43.5" cy="43.5" r="43.015" fill="white" stroke="#00AA3A" stroke-width="0.97"/>
<path d="M51.5 26C49.567 26 48 27.6707 48 29.7317V56.2683C48 58.3293 49.567 60 51.5 60C53.433 60 55 58.3293 55 56.2683V29.7317C55 27.6707 53.4332 26 51.5 26Z" fill="#00AA3A"/>
<path d="M35.5 26C33.567 26 32 27.6707 32 29.7317V56.2683C32 58.3293 33.567 60 35.5 60C37.433 60 39 58.3293 39 56.2683V29.7317C39 27.6707 37.4332 26 35.5 26Z" fill="#00AA3A"/>
</svg>
