<svg width="88" height="87" viewBox="0 0 88 87" fill="none" xmlns="http://www.w3.org/2000/svg">
<path d="M71.6947 42.709C71.6947 57.5428 59.1829 69.6002 43.7084 69.6002C28.2338 69.6002 15.7221 57.5428 15.7221 42.709C15.7221 27.8752 28.2338 15.8178 43.7084 15.8178C59.1829 15.8178 71.6947 27.8752 71.6947 42.709Z" fill="white" stroke="#00AA3A" stroke-width="0.971484"/>
<path fill-rule="evenodd" clip-rule="evenodd" d="M43.7084 16.4271C28.5676 16.4271 16.3314 28.2144 16.3314 42.709C16.3314 57.2037 28.5676 68.9909 43.7084 68.9909C58.8491 68.9909 71.0854 57.2037 71.0854 42.709C71.0854 28.2144 58.8491 16.4271 43.7084 16.4271ZM15.2363 42.709C15.2363 27.5687 28.0046 15.332 43.7084 15.332C59.4122 15.332 72.1804 27.5687 72.1804 42.709C72.1804 57.8493 59.4122 70.086 43.7084 70.086C28.0046 70.086 15.2363 57.8493 15.2363 42.709Z" fill="#707070" stroke="#00AA3A" stroke-width="0.971484"/>
<path d="M81.7449 21.9083L81.7463 21.9107C85.5784 28.4548 87.5706 35.9129 87.5121 43.4963L87.5121 43.5037C87.5703 51.0872 85.5777 58.5453 81.7452 65.0893L81.7438 65.0918C77.9884 71.5912 72.5904 76.9892 66.0909 80.7447L66.0884 80.7461C59.5446 84.5789 52.0863 86.5715 44.5029 86.513L44.4954 86.513C36.9119 86.5715 29.4537 84.5789 22.9099 80.7461L22.9074 80.7447C16.4081 76.9886 11.0099 71.5907 7.25335 65.0917L7.25194 65.0893C3.41939 58.5453 1.42683 51.0872 1.48509 43.5037L1.48504 43.4963C1.42662 35.9127 3.41959 28.4544 7.25302 21.9108L7.25447 21.9082C11.0099 15.4088 16.4079 10.0108 22.9074 6.25535L22.9099 6.2539C29.4537 2.421 36.9119 0.428417 44.4954 0.48706L44.5029 0.487002C52.0864 0.428309 59.5447 2.4209 66.0884 6.2539L66.0909 6.25534C72.5904 10.011 77.9888 15.409 81.7449 21.9083ZM66.4886 39.9633L35.6921 21.8402C35.0803 21.4432 34.3689 21.2266 33.6395 21.2153C32.9103 21.2041 32.1927 21.3986 31.5691 21.7764C30.9266 22.1276 30.3941 22.6503 30.0311 23.2864C29.6676 23.9234 29.4884 24.6488 29.5135 25.3817V61.6116C29.4881 62.3446 29.6672 63.0702 30.0308 63.7072C30.3959 64.347 30.9325 64.872 31.5801 65.223L31.58 65.2231L31.5875 65.227C32.2153 65.5534 32.9111 65.7274 33.6187 65.7351H33.6235C34.3511 65.7357 35.0648 65.5356 35.686 65.1568C35.6872 65.1561 35.6884 65.1553 35.6896 65.1546L66.4362 47.0676L66.4886 47.0378C67.1135 46.6825 67.6331 46.1681 67.9946 45.5467C68.3561 44.9254 68.5466 44.2194 68.5466 43.5006C68.5466 42.7817 68.3561 42.0757 67.9946 41.4544C67.6337 40.834 67.1151 40.3202 66.4915 39.965C66.4905 39.9644 66.4895 39.9639 66.4886 39.9633Z" fill="white" stroke="#00AA3A" stroke-width="0.971484"/>
<path d="M68.4932 38.1435C71.7314 40.0132 71.7314 44.6872 68.4932 46.5568L35.8307 65.4145C32.5924 67.2842 28.5445 64.9471 28.5445 61.2079L28.5445 23.4925C28.5445 19.7532 32.5924 17.4162 35.8307 19.2858L68.4932 38.1435Z" fill="#00AA3A"/>
</svg>
