<svg id="Ride" xmlns="http://www.w3.org/2000/svg" width="224.951" height="209.266" viewBox="0 0 224.951 209.266">
  <path id="Path_967" data-name="Path 967" d="M394.951,351.888c-13.227-.34-26.227,10.959-26.151,25.584.076,14.1,12.093,25.66,26.454,25.547,13.6-.113,25.32-12.206,25.244-26A25.7,25.7,0,0,0,394.951,351.888Zm-.454,32.878a7.34,7.34,0,0,1-7.218-7.445,7.534,7.534,0,0,1,7.407-7.6,8.011,8.011,0,0,1,7.6,7.86C402.282,381.4,398.654,384.841,394.5,384.766Z" transform="translate(-207.601 -199.006)" fill="none"/>
  <path id="Path_968" data-name="Path 968" d="M271.585,75.97c.038-2.872-2.948-6.009-5.669-5.971-2.834,0-5.48,2.834-5.517,5.9a5.273,5.273,0,0,0,5.4,5.442A5.683,5.683,0,0,0,271.585,75.97Z" transform="translate(-150.741 -43.848)" fill="none"/>
  <path id="Path_969" data-name="Path 969" d="M39.711,348.5A25.849,25.849,0,1,0,65.6,374.349,25.805,25.805,0,0,0,39.711,348.5Zm-.189,33.672a7.326,7.326,0,0,1-7.1-7.369c.038-4.61,3.137-7.634,7.672-7.558,4.044.038,7.1,3.4,7.067,7.672C47.156,379.3,44.095,382.247,39.522,382.172Z" transform="translate(-8.534 -196.903)" fill="none"/>
  <path id="Path_970" data-name="Path 970" d="M408.509,46.9c-2.683-.038-6.009,3.212-6.009,5.858,0,2.57,3.288,5.82,5.933,5.858,2.759.038,5.593-2.834,5.631-5.82A6.032,6.032,0,0,0,408.509,46.9Z" transform="translate(-233.036 -29.478)" fill="none"/>
  <path id="Path_971" data-name="Path 971" d="M461.2,158.065c-1.625-1.663-3.363-1.172-4.157.983a8.929,8.929,0,0,0-.189,4.119c.416,5.858.831,11.715,1.285,17.573a34.644,34.644,0,0,0,1.965,9.183,3.16,3.16,0,0,0,3.779,2.23c1.4-.227,2-1.172,2.041-3.174.151-6.462-.3-12.924.3-19.613A16.585,16.585,0,0,0,461.2,158.065Z" transform="translate(-262.291 -90.266)" fill="none"/>
  <path id="Path_972" data-name="Path 972" d="M216.262,181.066c-2.456-3.666-4.724-3.666-7.1-.038-1.663,2.494-3.212,5.1-4.8,7.6a6.987,6.987,0,0,1-6.424,3.363c-4.762-.038-9.523,0-14.285,0a26.191,26.191,0,0,0-5.706,0c-2.419.416-4.422,2.683-4.346,4.724.076,2.23,2.041,4.006,4.724,4.233.416.038.831.113,1.209.151,3.288.227,6.576.529,9.637-1.1a6.017,6.017,0,0,1,6.311.151,27.194,27.194,0,0,0,7.558,2.985c2.8.68,5.517,1.587,7.672,3.628,1.663,1.587,3.363,1.625,5.329.68,3.1-1.474,6.009-3.212,8.994-4.951,2.683-1.587,3.1-3.288,1.436-5.858C223.1,191.421,219.664,186.244,216.262,181.066Z" transform="translate(-98.327 -102.724)" fill="none"/>
  <path id="Path_973" data-name="Path 973" d="M239.664,161.526a101.3,101.3,0,0,0-5.549-12.86,34.035,34.035,0,0,1-2.859-7.342c-.925-3.9.42-6.706,3.952-8.488a9.423,9.423,0,0,1,2.144-.849,4.069,4.069,0,0,0,2.943-3.608c.42-2.928-.841-4.5-3.784-4.541a5.658,5.658,0,0,1-3.657-.934,3.8,3.8,0,0,1-1.892-3.438,10.226,10.226,0,0,0-2.522-6.536c-1.3-1.655-2.733-3.226-4.036-4.923a9.4,9.4,0,0,1-1.976-6.409c.378-8.743.589-17.443.925-26.186a10.773,10.773,0,0,0-2.1-7c-5.129-6.918-10.762-13.369-16.269-20.032a24.512,24.512,0,0,0-6.936-5.687c-1.892-1.1-2.438-2.631-1.3-4.584a26.951,26.951,0,0,1,3.573-5.093c7.021-7.13,5.213-20.16-2.144-26.568a22.137,22.137,0,0,0-3.531-2.589A18.714,18.714,0,0,0,183.794.8c-4.666,0-8.786,1.316-11.308,3.4-5.045,3.183-8.2,7.979-9.5,14.515-.589,2.8.8,4.371,3.615,3.947A46.752,46.752,0,0,0,171.56,21.6c4.961-1.188,6.684.085,7.273,5.263.462,4.159,1.976,7.724,5.465,10.228a11.474,11.474,0,0,1,1.808,1.7,3.865,3.865,0,0,1,.589,4.5,22.43,22.43,0,0,1-2.228,3.4,10.849,10.849,0,0,0-2.354,5.687c-.631,9.38-1.219,18.8-1.766,28.139-.252,4.371-.673,8.828-.673,13.242,0,1.443-.462,2.759-1.934,3.183a3.086,3.086,0,0,1-3.657-1.316,11.078,11.078,0,0,1-.8-1.146c-7.567-11.841-15.134-23.64-22.617-35.524a18.684,18.684,0,0,0-9.08-7.852,10.849,10.849,0,0,1-1.219-.594,4.061,4.061,0,0,1-1.724-5.475,10.3,10.3,0,0,1,1.3-2.122c3.91-4.5,5.423-15.449-.084-21.942-9.122-10.823-23.668-10.356-32.874-.255a18.4,18.4,0,0,0-4.834,13.242c.042,3.013,1.219,3.82,4.036,2.844,1.934-.679,3.868-1.528,5.8-2.037,4.2-1.146,4.919-.722,6.39,3.438a9.993,9.993,0,0,0,.378,1.019,15.985,15.985,0,0,0,7.357,9.04,13.134,13.134,0,0,1,3.279,2.844c2.1,2.419,2.228,4.159.462,6.706-4.33,6.324-8.66,12.648-12.612,19.184a18.28,18.28,0,0,1-2.522,3.141,9.6,9.6,0,0,1-7.693,2.971c-3.994-.34-7.9-.17-11.855-.127A6.032,6.032,0,0,0,89.416,86.4c-1.934,3.65-3.91,7.3-5.885,10.95A15.356,15.356,0,0,1,82.144,99.6a3.247,3.247,0,0,1-3.615.976,2.992,2.992,0,0,1-2.1-2.631c-.126-1.146-.126-2.292-.21-3.438-.042-.552-.126-1.231-.8-1.358-1.934-.424-4.078-1.061-5.927-.212-1.387.594-1.429,2.5-1.892,3.947a3.151,3.151,0,0,1-.168.594,5.57,5.57,0,0,1-5.213,4.329,13.417,13.417,0,0,0-2.144.382,2.648,2.648,0,0,0-2.4,2.589c-.084,1.7-.126,3.438-.126,5.135.042,2.589,1.3,3.947,3.91,3.989,2.859.085,5.675,0,8.492.042a11.589,11.589,0,0,1,2.438.17c2.817.552,3.573,1.867,2.354,4.414a135.325,135.325,0,0,1-8.282,14.388,4.606,4.606,0,0,1-5.129,2.037,35.942,35.942,0,0,0-5.171-1.019,42.325,42.325,0,0,0-21.734,4.2c-2.733,1.316-5.171,3.226-8.029,4.244.5,1.613,1.429,2.037,2.9,1.316,1.009-.509,2.018-1.061,2.985-1.655A39.573,39.573,0,0,1,58.56,136.7c7.9,1.061,14.377,4.966,20.053,10.483,9.627,9.295,13.831,20.457,11.771,33.911a9.645,9.645,0,0,0-.042,2.207c.084.849.715,1.783,1.387,1.825.757.042,1.093-1.061,1.177-1.783.126-1.146.042-2.292.168-3.438,1.3-11.417-2.228-21.391-8.786-30.473a41.179,41.179,0,0,0-6.768-6.791c-1.892-1.655-2.228-3.4-1.093-5.517a5.246,5.246,0,0,1,7.315-2.5c2.144,1.019,4.2,2.165,6.348,3.183a93.125,93.125,0,0,1,34.136,28.1c3.195,4.371,6.558,8.7,9.921,12.987a6.375,6.375,0,0,0,4.708,2.886c5.255.34,10.51.212,15.765.127,2.859-.042,3.615-.976,3.195-3.735a23.3,23.3,0,0,1-.126-6.833c2.228-14.218,8.954-25.422,21.734-32.34,7.651-4.159,15.891-6.451,24.551-4.753,17.362,3.48,29.007,13.666,33.841,31.195a4.679,4.679,0,0,0,1.135,2.334c.757.679,1.6,1.231,2.312-.085v-1.231C240.546,164.837,240.21,163.139,239.664,161.526ZM130.783,42.86a5.9,5.9,0,0,1-6.012-6.112c.042-3.438,2.985-6.578,6.138-6.621,3.027,0,6.348,3.48,6.306,6.706A6.289,6.289,0,0,1,130.783,42.86ZM145.5,103.3c-3.279,1.952-6.558,3.9-10.005,5.56-2.186,1.061-4.078.976-5.927-.764-2.4-2.249-5.465-3.31-8.534-4.074a28.4,28.4,0,0,1-8.408-3.353,6.735,6.735,0,0,0-7.021-.17c-3.405,1.825-7.063,1.528-10.72,1.231-.462-.042-.925-.127-1.345-.17-2.943-.255-5.129-2.249-5.255-4.753-.084-2.292,2.186-4.838,4.834-5.305a31.726,31.726,0,0,1,6.348,0c5.3,0,10.594-.042,15.891,0A7.753,7.753,0,0,0,122.5,87.72c1.808-2.844,3.489-5.772,5.339-8.531,2.733-4.074,5.213-4.074,7.9.042,3.868,5.814,7.609,11.587,11.351,17.443C148.944,99.6,148.439,101.514,145.5,103.3Zm45.57-69.816c-2.943-.042-6.6-3.692-6.6-6.578,0-2.971,3.7-6.621,6.684-6.578a6.569,6.569,0,0,1,6.1,6.578C197.246,30.254,194.177,33.522,191.067,33.48Zm26.485,69.477c-.042,2.249-.715,3.226-2.27,3.565a3.473,3.473,0,0,1-4.2-2.5A41.386,41.386,0,0,1,208.891,93.7c-.546-6.578-1.009-13.157-1.429-19.735a11.432,11.432,0,0,1,.21-4.626c.841-2.462,2.817-2.971,4.624-1.1a18.556,18.556,0,0,1,5.549,12.69C217.257,88.442,217.761,95.7,217.551,102.957Z" transform="translate(-16.31 -0.8)" fill="#16ab4c"/>
  <path id="Path_974" data-name="Path 974" d="M384.954,337.564a30.925,30.925,0,0,0-7.18,60.73c1.436.416,2.985.416,4.346,1.058h6.953a24.483,24.483,0,0,1,3.628-.68,30.941,30.941,0,0,0-7.747-61.108Zm1.7,56.535c-14.323.113-26.378-11.488-26.454-25.547-.076-14.663,12.962-25.924,26.151-25.584A25.585,25.585,0,0,1,411.823,368.1C411.936,381.893,400.259,393.986,386.654,394.1Z" transform="translate(-199.041 -190.086)" fill="#1dac4d"/>
  <path id="Path_975" data-name="Path 975" d="M70.571,398.1a7.191,7.191,0,0,0-7.672,7.558,7.351,7.351,0,0,0,7.1,7.369c4.573.076,7.634-2.872,7.634-7.294A7.243,7.243,0,0,0,70.571,398.1Z" transform="translate(-39.016 -227.758)" fill="#1bab4c"/>
  <path id="Path_976" data-name="Path 976" d="M425.106,399a7.559,7.559,0,0,0-7.407,7.6,7.34,7.34,0,0,0,7.218,7.445c4.157.076,7.823-3.288,7.823-7.218A8.065,8.065,0,0,0,425.106,399Z" transform="translate(-238.022 -228.319)" fill="#1aab4c"/>
  <path id="Path_977" data-name="Path 977" d="M30.877,334.4a31.177,31.177,0,1,0,31.177,31.177A31.184,31.184,0,0,0,30.877,334.4Zm0,57.026a25.849,25.849,0,1,1,25.887-25.849A25.805,25.805,0,0,1,30.877,391.426Z" transform="translate(0.3 -188.131)" fill="#16ab4c"/>
</svg>
