<svg width="41" height="45" viewBox="0 0 41 45" fill="none" xmlns="http://www.w3.org/2000/svg">
<path d="M39.6017 7.45416C39.6017 10.7994 36.8902 13.5112 33.545 13.5112C30.1998 13.5112 27.4883 10.7994 27.4883 7.45416C27.4883 4.10931 30.1998 1.39746 33.545 1.39746C36.8902 1.39746 39.6017 4.10931 39.6017 7.45416Z" fill="#797979"/>
<path d="M33.5462 14.9092C29.4349 14.9092 26.0918 11.5657 26.0918 7.45443C26.0918 3.34349 29.4349 0 33.5462 0C37.6575 0 41.0007 3.34349 41.0007 7.45443C41.0007 11.5657 37.6575 14.9092 33.5462 14.9092ZM33.5462 2.79545C30.9763 2.79545 28.8873 4.88658 28.8873 7.45443C28.8873 10.0226 30.9763 12.1137 33.5462 12.1137C36.1161 12.1137 38.2052 10.0226 38.2052 7.45443C38.2052 4.88658 36.1161 2.79545 33.5462 2.79545Z" fill="#797979"/>
<path d="M39.6017 37.2729C39.6017 40.6177 36.8902 43.3296 33.545 43.3296C30.1998 43.3296 27.4883 40.6177 27.4883 37.2729C27.4883 33.9277 30.1998 31.2158 33.545 31.2158C36.8902 31.2158 39.6017 33.9277 39.6017 37.2729Z" fill="#797979"/>
<path d="M33.5462 44.7276C29.4349 44.7276 26.0918 41.3841 26.0918 37.2731C26.0918 33.1618 29.4349 29.8184 33.5462 29.8184C37.6575 29.8184 41.0007 33.1618 41.0007 37.2731C41.0007 41.3841 37.6575 44.7276 33.5462 44.7276ZM33.5462 32.6138C30.9763 32.6138 28.8873 34.7049 28.8873 37.2731C28.8873 39.841 30.9763 41.9321 33.5462 41.9321C36.1161 41.9321 38.2052 39.841 38.2052 37.2731C38.2052 34.7049 36.1161 32.6138 33.5462 32.6138Z" fill="#797979"/>
<path d="M13.5122 22.3633C13.5122 25.7085 10.8003 28.42 7.45514 28.42C4.11029 28.42 1.39844 25.7085 1.39844 22.3633C1.39844 19.0181 4.11029 16.3066 7.45514 16.3066C10.8003 16.3066 13.5122 19.0181 13.5122 22.3633Z" fill="#797979"/>
<path d="M7.45443 29.818C3.34349 29.818 0 26.4749 0 22.3636C0 18.2523 3.34349 14.9092 7.45443 14.9092C11.5657 14.9092 14.9092 18.2523 14.9092 22.3636C14.9092 26.4749 11.5657 29.818 7.45443 29.818ZM7.45443 17.7046C4.88454 17.7046 2.79545 19.7954 2.79545 22.3636C2.79545 24.9318 4.88454 27.0226 7.45443 27.0226C10.0247 27.0226 12.1137 24.9318 12.1137 22.3636C12.1137 19.7954 10.0247 17.7046 7.45443 17.7046Z" fill="#797979"/>
<path d="M11.8538 21.4691C11.2051 21.4691 10.5751 21.1316 10.2322 20.528C9.7234 19.6353 10.0367 18.4966 10.9294 17.9857L28.2218 8.12726C29.1145 7.61471 30.2532 7.92797 30.764 8.82407C31.2728 9.71676 30.9596 10.8555 30.0669 11.3663L12.7741 21.2248C12.4834 21.3906 12.1667 21.4691 11.8538 21.4691Z" fill="#797979"/>
<path d="M29.1464 36.8438C28.8332 36.8438 28.5165 36.7653 28.2258 36.5994L10.933 26.741C10.0403 26.2322 9.72739 25.0934 10.2362 24.1987C10.7429 23.3043 11.8834 22.9893 12.7781 23.5019L30.0709 33.3604C30.9636 33.8692 31.2765 35.0079 30.7677 35.9026C30.423 36.5063 29.7931 36.8438 29.1464 36.8438Z" fill="#797979"/>
</svg>
